PathFileType	4	(X/Y/Z)	D:\Share\Shared_Data\Ergonomics\Sit To Stand Pertubation\S2\Unperturbed.trc
DataRate	CameraRate	NumFrames	NumMarkers	Units	OrigDataRate	OrigDataStartFrame	OrigNumFrames	
100	100	14	18	m	100	4079	291
Frame#	Time	R_Toe			R_ASIS			R_Pelvis			V_Sacral			L_Pelvis			L_ASIS			Clavical			R_Acromium			L_Acromium			Sternum			Torso			R_Thigh_Med			R_Thigh_Lat			R_Thigh			R_Shank_Med			R_Shank_Lat			R_Shank			R_Heel			
		X1	Y1	Z1	X2	Y2	Z2	X3	Y3	Z3	X4	Y4	Z4	X5	Y5	Z5	X6	Y6	Z6	X7	Y7	Z7	X8	Y8	Z8	X9	Y9	Z9	X10	Y10	Z10	X11	Y11	Z11	X12	Y12	Z12	X13	Y13	Z13	X14	Y14	Z14	X15	Y15	Z15	X16	Y16	Z16	X17	Y17	Z17	X18	Y18	Z18	

4079	40.78	0.44278107	0.064263969	0.14960844	0.43488358	1.0307731	0.14239146	0.35734531	1.0316519	0.18248688	0.21716777	1.0376228	0.020781723	0.31617395	1.0422563	-0.1584445	0.41240479	1.0470686	-0.13139018	0.45460849	1.4586648	0.0071343136	0.35997845	1.4842045	0.21472672	0.34088858	1.4929286	-0.17402141	0.49763596	1.2992693	0.0010189505	0.45866473	1.4199799	-0.10918272	0.37248138	0.49361026	0.09158017	0.35947739	0.5190863	0.18062932	0.44811618	0.68334875	0.1605173	0.30914661	0.10700797	0.10767552	0.28503091	0.10306374	0.19830396	0.32183539	0.37491809	0.21295644	0.20555135	0.062532166	0.15030167
4080	40.79	0.44277997	0.06426123	0.14959042	0.43632565	1.0307404	0.14246263	0.35879553	1.0314143	0.18267422	0.21871783	1.0369669	0.020770081	0.31768167	1.0418575	-0.15847429	0.41389578	1.0469844	-0.13141286	0.45364621	1.4589192	0.0071700263	0.35864426	1.4839924	0.21469949	0.33971808	1.4927699	-0.17399753	0.49753964	1.2997159	0.00094939405	0.457914	1.4202567	-0.10921207	0.37148248	0.49364423	0.091305351	0.35871317	0.51915997	0.18029773	0.44842648	0.68296796	0.16000818	0.30910562	0.10696478	0.10762744	0.28501617	0.10305893	0.19825868	0.32109204	0.37500967	0.21285817	0.20555031	0.062513954	0.15027531
4081	40.8	0.44277621	0.064259369	0.14957465	0.43776117	1.0306704	0.14253519	0.36022818	1.0311473	0.18286562	0.22025874	1.0362751	0.020768974	0.31917111	1.0414521	-0.15850354	0.41537088	1.0468792	-0.13141975	0.45269601	1.4591121	0.0072197666	0.35732138	1.4837412	0.21468367	0.33858142	1.4925481	-0.17396346	0.49742468	1.300098	0.00090969861	0.45717105	1.420459	-0.10922259	0.37042868	0.49367551	0.091052696	0.35789337	0.51923059	0.17999188	0.44866177	0.68256982	0.15952956	0.30906082	0.10691977	0.10758286	0.28499643	0.1030459	0.19821935	0.32030814	0.37509637	0.21277879	0.20554735	0.062488876	0.15025056
4082	40.81	0.44276923	0.064258545	0.14956184	0.43919016	1.0305624	0.14260912	0.36165723	1.0308512	0.18305772	0.22179121	1.0355437	0.020775547	0.3206434	1.0410396	-0.15853526	0.41682907	1.0467521	-0.13141104	0.45175925	1.4592421	0.0072846041	0.35601404	1.4834471	0.21468344	0.33747855	1.4922627	-0.17391582	0.49729514	1.3004138	0.0008994925	0.45643585	1.4205857	-0.10921278	0.3693096	0.49370239	0.090825066	0.35701117	0.51929535	0.17971304	0.44881613	0.68215356	0.15908627	0.3090141	0.1068744	0.10754231	0.28497003	0.10302497	0.19818567	0.31947464	0.37517941	0.21271751	0.20554179	0.062458649	0.15022792
4083	40.82	0.44275867	0.064258865	0.14955292	0.44061136	1.0304153	0.14268474	0.36309787	1.0305254	0.18324715	0.22331842	1.0347672	0.020787954	0.32210019	1.0406158	-0.15856947	0.41826978	1.0466	-0.13138773	0.45083725	1.459308	0.0073647399	0.35472742	1.4831072	0.21470204	0.33640903	1.4919135	-0.17385352	0.49715494	1.3006617	0.00091659892	0.45570901	1.4206365	-0.10918251	0.36811642	0.49372293	0.090625557	0.35606262	0.51935175	0.17946414	0.44888843	0.68171973	0.15868129	0.30896729	0.10682978	0.10750651	0.28493558	0.10299644	0.19815727	0.31858459	0.3752598	0.21267514	0.20553308	0.062424625	0.15020749
4084	40.83	0.44274448	0.064260437	0.14954909	0.44202267	1.0302284	0.14276219	0.3645593	1.0301697	0.18343066	0.22484413	1.0339407	0.020805344	0.3235441	1.0401735	-0.1586044	0.41969318	1.046418	-0.13135158	0.44993167	1.4593076	0.0074595103	0.35346716	1.4827172	0.21473991	0.33537164	1.4914987	-0.17377737	0.49700745	1.3008401	0.00095797384	0.45499161	1.4206116	-0.10913311	0.36684317	0.49373459	0.090457031	0.35504742	0.51939764	0.17925	0.44888132	0.68126843	0.15831587	0.30892181	0.10678635	0.10747633	0.2848913	0.10296015	0.1981339	0.31763538	0.37533798	0.21265405	0.20552072	0.062387619	0.15018941
4085	40.84	0.4427265	0.064263344	0.14955176	0.44342126	1.0300007	0.14284152	0.36603833	1.0297836	0.183606	0.22637006	1.0330604	0.020827356	0.32497815	1.039704	-0.15863895	0.42109988	1.0462002	-0.1313054	0.44904498	1.4592393	0.0075674815	0.3522395	1.4822721	0.21479414	0.33436444	1.4910183	-0.17368875	0.49685474	1.3009493	0.001020497	0.4542851	1.4205118	-0.10906686	0.36548917	0.49373441	0.090321457	0.35396994	0.51943079	0.1790764	0.44880035	0.6807998	0.15799016	0.30887891	0.10674418	0.10745274	0.28483521	0.10291531	0.19811536	0.31662939	0.37541391	0.21265706	0.20550432	0.062348007	0.15017375
4086	40.85	0.44270493	0.064267609	0.14956235	0.44480328	1.0297319	0.1429231	0.3675191	1.0293662	0.18377254	0.22789445	1.0321262	0.020853516	0.32640521	1.0391995	-0.15867332	0.42249066	1.0459407	-0.13125269	0.44818066	1.4591021	0.007686626	0.35105066	1.4817679	0.21485986	0.33338507	1.4904718	-0.17358876	0.49669827	1.3009896	0.001101171	0.45359116	1.4203391	-0.10898662	0.36406262	0.49372049	0.09021981	0.35283945	0.51944855	0.17894893	0.4486532	0.68031372	0.15770409	0.30883984	0.10670309	0.10743666	0.28476492	0.10286047	0.19810135	0.31557401	0.37548651	0.2126857	0.2054836	0.062305866	0.15016051
4087	40.86	0.44267993	0.064273041	0.149582	0.44616391	1.0294225	0.14300809	0.36897968	1.0289176	0.18393115	0.22941171	1.0311411	0.02088241	0.32782672	1.0386549	-0.15870889	0.42386646	1.0456338	-0.13119612	0.44734406	1.458897	0.0078143663	0.34990674	1.4812006	0.21493269	0.332431	1.4898606	-0.17347845	0.49653955	1.3009628	0.0011969739	0.45291183	1.4200968	-0.10889567	0.36258334	0.49369266	0.090152153	0.35167102	0.51944751	0.17887169	0.44845007	0.67981104	0.15745775	0.3088063	0.10666283	0.10742877	0.28467841	0.1027938	0.19809155	0.31448135	0.37555423	0.21273886	0.20545834	0.062261005	0.15014964
4088	40.87	0.44265192	0.064279144	0.14961136	0.44749716	1.0290737	0.14309821	0.37040009	1.0284396	0.18408287	0.23091197	1.0301129	0.020910852	0.32924118	1.0380681	-0.15874763	0.42522733	1.0452771	-0.13113701	0.44654135	1.4586287	0.0079477372	0.34881329	1.4805684	0.21501007	0.33150012	1.4891877	-0.17335913	0.49638062	1.300871	0.0013048011	0.45224969	1.4197897	-0.10879731	0.36108115	0.49365131	0.090117928	0.35048544	0.51942511	0.17884663	0.44820432	0.67929431	0.15725157	0.30877933	0.10662276	0.1074292	0.28457468	0.10271387	0.19808574	0.31336816	0.37561496	0.21281346	0.20542853	0.062212765	0.15014127
4089	40.88	0.44262112	0.064285172	0.14965034	0.44879617	1.0286891	0.1431954	0.37176682	1.027937	0.18422781	0.23238187	1.0290516	0.020933792	0.33064368	1.0374415	-0.15879166	0.42657111	1.0448713	-0.13107552	0.44577838	1.4583035	0.0080838614	0.3477746	1.4798722	0.21509071	0.33059143	1.4884585	-0.17323198	0.49622363	1.300719	0.0014217755	0.4516084	1.4194252	-0.10869405	0.35959219	0.49359641	0.090116371	0.34930853	0.51937994	0.17887282	0.44793274	0.67876788	0.15708656	0.3087583	0.1065815	0.10743742	0.28445459	0.10262026	0.19808403	0.31225592	0.37566644	0.21290671	0.20539487	0.062159889	0.15013542
4090	40.89	0.44258786	0.064290138	0.14969809	0.45005423	1.0282751	0.14330161	0.373073	1.0274187	0.18436562	0.23380724	1.0279724	0.020946394	0.33202551	1.0367826	-0.15884143	0.42789343	1.0444218	-0.13101103	0.44505936	1.4579319	0.0082202024	0.34679288	1.4791173	0.2151734	0.3297049	1.4876824	-0.17309769	0.49607129	1.3005148	0.0015455723	0.45099243	1.4190143	-0.10858742	0.35815497	0.49352817	0.090146805	0.34817029	0.51931317	0.17894681	0.44765628	0.67823877	0.15696468	0.30873947	0.10653708	0.10745264	0.28432074	0.10251417	0.19808688	0.3111698	0.37570627	0.21301712	0.20535878	0.062100918	0.15013185
4091	40.9	0.44255286	0.064293152	0.14975288	0.45126514	1.0278412	0.14341869	0.37431799	1.0268962	0.18449606	0.23517632	1.0268945	0.020947325	0.3333757	1.0361035	-0.15889468	0.42918845	1.0439369	-0.13094225	0.44438705	1.4575269	0.0083543301	0.34586804	1.4783126	0.21525728	0.32884186	1.4868705	-0.17295715	0.49592734	1.3002704	0.0016742043	0.45040707	1.4185718	-0.10847861	0.35680835	0.49344821	0.090208252	0.34710355	0.51922797	0.17906343	0.4473988	0.67771588	0.15688751	0.30871771	0.10648793	0.10747391	0.28417801	0.10239849	0.19809489	0.31013861	0.3757327	0.21314366	0.20532205	0.062035221	0.15013007
4092	40.91	0.4425174	0.064293747	0.14981216	0.45242365	1.0274001	0.1435481	0.37550647	1.026385	0.18461983	0.23648083	1.0258434	0.020939795	0.33468182	1.0354182	-0.15894638	0.43044955	1.0434272	-0.13086732	0.44376334	1.4571033	0.0084837589	0.34499765	1.4774717	0.2153416	0.32800534	1.4860377	-0.17281241	0.49579697	1.3000011	0.0018055022	0.44985828	1.4181143	-0.10836902	0.35558957	0.49336002	0.090299004	0.34614191	0.51912964	0.17921652	0.44718628	0.67721051	0.15685495	0.30868976	0.10643398	0.10749988	0.28403287	0.10227776	0.19810803	0.30919406	0.37574506	0.21328418	0.20528648	0.061963909	0.15012926
